<svg xmlns="http://www.w3.org/2000/svg" width="1600" height="500" viewBox="0 0 1600 500">
  <rect width="1600" height="500" fill="#ffffff"/>
  <svg x="120.0" y="15.0" width="470" height="470" viewBox="0 0 1004.95 1004.95" xmlns="http://www.w3.org/2000/svg">
  <defs>
    <style>
      .cls-1 {
        fill: #f7a834;
      }

      .cls-2 {
        fill: #f39200;
      }

      .cls-3 {
        fill: #353738;
      }

      .cls-4 {
        fill: #f9cc12;
      }

      .cls-5 {
        fill: #e8651c;
      }

      .cls-6 {
        fill: #f9b233;
      }

      .cls-7 {
        fill: #242626;
      }
    </style>
  </defs>
  <g id="logo">
    <path class="cls-3" d="M502.47,50c1.16,0,2.84.29,4.23,1.69l446.56,446.56c2.25,2.25,2.25,6.21,0,8.47l-446.56,446.56c-1.39,1.39-3.07,1.69-4.23,1.69s-2.84-.29-4.23-1.69L51.69,506.71c-2.25-2.25-2.25-6.21,0-8.47L498.24,51.69c1.39-1.39,3.07-1.69,4.23-1.69M502.47,0c-14.35,0-28.7,5.44-39.59,16.33L16.33,462.89c-21.77,21.77-21.77,57.4,0,79.18l446.56,446.56c10.89,10.89,25.24,16.33,39.59,16.33s28.7-5.44,39.59-16.33l446.56-446.56c21.77-21.77,21.77-57.4,0-79.18L542.06,16.33c-10.89-10.89-25.24-16.33-39.59-16.33h0Z"/>
    <path class="cls-7" d="M988.62,462.89L542.06,16.33c-10.89-10.89-25.24-16.33-39.59-16.33-4.71,0-9.41.6-14,1.77,9.39,2.4,18.27,7.25,25.59,14.56l446.56,446.56c33.28,33.28,29.17,50.01,0,79.18l-446.56,446.56c-7.31,7.31-16.2,12.16-25.59,14.56,4.59,1.17,9.29,1.77,14,1.77,14.35,0,28.7-5.44,39.59-16.33l446.56-446.56c21.77-21.77,21.77-57.4,0-79.18Z"/>
    <path class="cls-7" d="M498.24,51.69c1.39-1.39,3.07-1.69,4.23-1.69.12,0,.25,0,.38.01l-10.87-10.87c-1.39-1.39-3.07-1.69-4.23-1.69s-2.84.29-4.23,1.69L24.42,498.24c-2.25,2.25-2.25,6.21,0,8.47l459.1,459.1c1.39,1.39,3.07,1.69,4.23,1.69s2.84-.29,4.23-1.69l10.87-10.87c-.13,0-.26.01-.38.01-1.16,0-2.84-.29-4.23-1.69L51.69,506.71c-2.25-2.25-2.25-6.21,0-8.47L498.24,51.69Z"/>
    <g>
      <path class="cls-4" d="M472.05,834.7c-32.89-41.26-55.42-98.15-60.37-151.03-8.77-93.58,24.74-131.97,71.94-203.36,54.07-81.8,71.98-123.22,61.32-224.9-2.99-28.47-9.71-56.6-11.77-85.16,60.06,66.43,95.8,162.25,68.51,251.11-20.39,66.4-58.92,102.23-97.88,154.97-55.38,74.96-46.85,171.34-31.74,258.36Z"/>
      <path class="cls-1" d="M544.1,183c42.97,64.34,64.43,145.62,41.54,221.9-20.39,67.94-58.92,104.6-97.88,158.57-50.98,70.62-47.8,159.81-35.18,243,5.98,9.99,12.5,19.46,19.48,28.23-15.12-87.02-23.64-183.4,31.74-258.36,38.96-52.74,77.49-88.57,97.88-154.97,25.59-83.33-4.24-172.77-57.58-238.37Z"/>
      <path class="cls-2" d="M568.98,831.89c-38.14-48.32-50.16-120.82-29.51-179.13,18.01-50.84,66.71-86.02,92.98-133.19,29.14-52.31,22.29-97.93,26.45-154.79.15-2.09-1.09-4.06,2.09-3.48,46.51,52.34,66.38,127.2,37.49,193.39-21.9,50.17-53.96,69.09-86.65,107.2-39.35,45.87-42.53,112.16-42.84,169.99Z"/>
      <path class="cls-5" d="M665.9,367.03c30.84,50.84,40.62,114.12,16.54,171.16-21.9,51.9-53.96,71.47-86.65,110.9-35.63,42.96-41.6,103.26-42.65,158.68,4.64,8.52,9.92,16.6,15.84,24.1.32-57.83,3.49-124.13,42.84-169.99,32.7-38.11,64.75-57.03,86.65-107.2,27.86-63.81,10.39-135.68-32.58-187.66Z"/>
      <path class="cls-6" d="M366.7,667.52l-8.4-7.74c-35.46-46.7-52.15-106.92-38.66-165.04,13.92-59.99,70.12-103.57,88.5-164.36,14-46.3,4.63-93.29,4.21-140.46,33.91,30.66,58.44,74.34,63.9,120.12,6.16,51.61-14.44,97.72-44.35,138.23-14.97,20.27-35.8,38.65-47.67,60.5-25.62,47.17-22.01,106.98-17.54,158.75Z"/>
      <path class="cls-2" d="M476.26,310.04c-4.52-37.88-22.1-74.31-47.24-103.13,16.47,25.22,27.71,54.21,31.2,84.08,6.16,52.81-14.44,99.99-44.35,141.44-14.97,20.74-35.8,39.54-47.67,61.91-24.21,45.62-22.32,102.78-18.26,153.64,2.66,4.02,5.44,7.97,8.36,11.81l8.4,7.74c-4.47-51.77-8.08-111.58,17.54-158.75,11.87-21.86,32.7-40.23,47.67-60.5,29.91-40.51,50.51-86.62,44.35-138.23Z"/>
    </g>
  </g>
</svg>
  <path d="M679.70 264.37Q696.50 264.37 696.50 250.93Q696.50 243.93 689.08 240.57Q685.16 238.61 678.93 236.93Q672.70 235.25 668.57 233.50Q664.44 231.75 660.24 228.67Q651.98 222.51 651.98 209.70Q651.98 196.89 660.87 189.54Q669.76 182.19 684.11 182.19Q698.46 182.19 710.78 187.93L710.78 208.93L696.50 209.91L696.50 201.79Q696.50 199.69 695.94 198.71Q694.40 196.05 686.07 196.05Q677.74 196.05 673.75 198.99Q669.76 201.93 669.76 208.09Q669.76 212.57 673.12 215.93Q675.36 218.17 679.77 219.64Q684.18 221.11 689.15 222.65Q694.12 224.19 697.97 226.01Q701.82 227.83 706.02 231.05Q714.56 237.35 714.56 250.51Q714.56 263.67 705.11 271.23Q695.66 278.79 680.19 278.79Q664.72 278.79 652.40 273.05L652.40 250.93L666.68 249.95L666.68 258.49Q666.68 260.59 667.24 261.57Q667.80 262.55 670.67 263.46Q673.54 264.37 679.70 264.37M728.70 218.31L722.82 217.89L722.82 206.55L746.48 206.55L746.48 215.65Q754.32 204.45 767.97 204.45Q781.62 204.45 786.38 215.65Q794.22 204.45 807.66 204.45Q817.74 204.45 823.20 210.54Q828.66 216.63 828.66 228.81L828.66 265.35L836.64 265.77L836.64 276.97L803.32 276.97L803.32 266.33L807.94 265.91Q810.04 265.63 810.95 264.72Q811.86 263.81 812 261.43L812 232.45Q812 224.75 810.25 221.04Q808.50 217.33 802.06 217.33Q795.62 217.33 792.19 221.25Q788.76 225.17 788.76 231.75L788.76 265.35L796.46 265.77L796.46 276.97L763.42 276.97L763.42 266.33L768.04 265.91Q770.14 265.63 771.12 264.72Q772.10 263.81 772.10 261.29L772.10 232.45Q772.10 224.75 770.35 221.04Q768.60 217.33 762.09 217.33Q755.58 217.33 752.22 221.39Q748.86 225.45 748.86 231.47L748.86 265.35L756.42 265.77L756.42 276.97L723.38 276.97L723.38 266.33L728 265.91Q730.10 265.63 731.08 264.72Q732.06 263.81 732.06 261.29L732.20 261.29L732.20 222.65Q732.20 220.27 731.43 219.36Q730.66 218.45 728.70 218.31M877.10 266.75Q892.36 266.75 892.36 242.11Q892.36 229.65 888.93 223.21Q885.50 216.77 877.45 216.77Q869.40 216.77 865.62 222.93Q861.84 229.09 861.84 239.73Q861.84 259.47 869.12 264.51Q872.34 266.75 877.10 266.75M844.90 241.69Q844.90 231.33 847.98 223.70Q851.06 216.07 856.24 212.01Q866.18 204.45 878.22 204.45Q886.62 204.45 892.43 207.18Q898.24 209.91 901.53 213.48Q904.82 217.05 907.13 223.84Q909.44 230.63 909.44 239.87Q909.44 259.19 900.06 269.13Q890.68 279.07 876.05 279.07Q861.42 279.07 853.16 269.62Q844.90 260.17 844.90 241.69M927.50 261.29L927.50 193.11Q927.50 190.87 926.73 190.03Q925.96 189.19 924 189.05L919.10 188.77L919.10 177.15L944.02 177.15L944.02 237.77Q951.72 237.07 957.46 233.01Q963.20 228.95 965.30 222.37Q965.72 220.97 965.72 220.13Q965.72 217.75 963.06 217.75L957.74 217.47L957.74 206.55L986.72 206.55L986.72 217.89L980 218.17Q978.18 232.45 967.68 240.71L981.40 265.35L989.94 265.77L989.94 276.97L969.50 276.97L953.54 247.85Q948.92 249.11 944.02 249.81L944.02 265.35L944.16 265.35L952.14 265.77L952.14 276.97L918.82 276.97L918.82 266.33L923.44 265.91Q925.54 265.63 926.52 264.72Q927.50 263.81 927.50 261.29M1031.80 204.45Q1042.30 204.45 1048.46 209.56Q1054.62 214.67 1054.62 223.91Q1054.62 230.07 1051.96 234.76Q1049.30 239.45 1045.38 242.11Q1041.46 244.77 1035.86 246.45Q1026.48 249.25 1014.72 249.25Q1015.14 256.67 1019.34 261.22Q1023.54 265.77 1032.22 265.77Q1040.90 265.77 1049.58 259.61L1054.90 270.95Q1052.10 273.47 1045.45 276.13Q1038.80 278.79 1030.26 278.79Q1013.18 278.79 1005.20 269.34Q997.22 259.89 997.22 243.37Q997.22 226.85 1006.32 215.65Q1015.42 204.45 1031.80 204.45M1025.43 236.44Q1030.54 235.53 1034.88 232.38Q1039.22 229.23 1039.22 224.89Q1039.22 216.35 1030.82 216.35Q1022.98 216.35 1018.78 222.58Q1014.58 228.81 1014.16 237.49Q1020.32 237.35 1025.43 236.44M1093.54 264.37Q1110.34 264.37 1110.34 250.93Q1110.34 243.93 1102.92 240.57Q1099 238.61 1092.77 236.93Q1086.54 235.25 1082.41 233.50Q1078.28 231.75 1074.08 228.67Q1065.82 222.51 1065.82 209.70Q1065.82 196.89 1074.71 189.54Q1083.60 182.19 1097.95 182.19Q1112.30 182.19 1124.62 187.93L1124.62 208.93L1110.34 209.91L1110.34 201.79Q1110.34 199.69 1109.78 198.71Q1108.24 196.05 1099.91 196.05Q1091.58 196.05 1087.59 198.99Q1083.60 201.93 1083.60 208.09Q1083.60 212.57 1086.96 215.93Q1089.20 218.17 1093.61 219.64Q1098.02 221.11 1102.99 222.65Q1107.96 224.19 1111.81 226.01Q1115.66 227.83 1119.86 231.05Q1128.40 237.35 1128.40 250.51Q1128.40 263.67 1118.95 271.23Q1109.50 278.79 1094.03 278.79Q1078.56 278.79 1066.24 273.05L1066.24 250.93L1080.52 249.95L1080.52 258.49Q1080.52 260.59 1081.08 261.57Q1081.64 262.55 1084.51 263.46Q1087.38 264.37 1093.54 264.37M1137.78 206.55L1162.84 206.55L1162.84 265.35L1170.82 265.77L1170.82 276.97L1137.50 276.97L1137.50 266.33L1142.12 265.91Q1146.18 265.49 1146.18 261.43L1146.18 222.51Q1146.18 220.13 1145.41 219.29Q1144.64 218.45 1142.68 218.45L1137.78 218.17L1137.78 206.55M1145.20 194.44Q1142.26 191.57 1142.26 187.09Q1142.26 182.61 1145.20 179.60Q1148.14 176.59 1152.90 176.59Q1157.66 176.59 1160.67 179.60Q1163.68 182.61 1163.68 187.09Q1163.68 191.57 1160.67 194.44Q1157.66 197.31 1152.90 197.31Q1148.14 197.31 1145.20 194.44M1241.24 276.83Q1239.98 292.37 1232.28 299.65Q1224.58 306.93 1208.20 306.93Q1191.82 306.93 1182.58 302.31L1182.58 282.85L1195.88 281.73L1195.88 288.45Q1195.88 292.23 1199.38 293.56Q1202.88 294.89 1209.04 294.89Q1218 294.89 1221.64 289.50Q1225.28 284.11 1225.28 274.31L1225.28 266.61Q1218.56 274.45 1206.66 274.45Q1199.38 274.45 1193.85 271.65Q1188.32 268.85 1185.24 264.09Q1179.22 254.57 1179.22 241.69Q1179.22 223.35 1189.16 213.90Q1199.10 204.45 1215.62 204.45Q1229.34 204.45 1241.52 209.63L1241.52 261.57Q1241.52 273.47 1241.24 276.83M1225.28 248.41L1225.28 218.31Q1220.38 216.63 1214.08 216.63Q1205.54 216.63 1200.99 222.93Q1196.44 229.23 1196.44 240.01Q1196.44 262.13 1211 262.13Q1217.02 262.13 1221.15 258.42Q1225.28 254.71 1225.28 248.41M1260.14 218.17L1254.26 217.75L1254.26 206.55L1277.92 206.55L1277.92 215.65Q1281.56 210.47 1287.58 207.46Q1293.60 204.45 1300.60 204.45Q1311.24 204.45 1317.05 210.54Q1322.86 216.63 1322.86 228.81L1322.86 265.35L1330.84 265.77L1330.84 276.97L1297.52 276.97L1297.52 266.33L1302.14 265.91Q1304.24 265.63 1305.22 264.72Q1306.20 263.81 1306.20 261.29L1306.20 232.45Q1306.20 224.75 1303.82 221.04Q1301.44 217.33 1294.79 217.33Q1288.14 217.33 1284.22 221.53Q1280.30 225.73 1280.30 231.47L1280.30 265.35L1288.28 265.77L1288.28 276.97L1254.96 276.97L1254.96 266.33L1259.58 265.91Q1261.68 265.63 1262.66 264.72Q1263.64 263.81 1263.64 261.29L1263.64 222.51Q1263.64 218.31 1260.14 218.17M1401.96 209.35L1401.96 261.43Q1401.96 263.67 1402.73 264.51Q1403.50 265.35 1405.46 265.49L1409.94 265.77L1409.94 276.97L1387.68 276.97L1387.68 268.85L1387.26 268.71Q1380.26 278.79 1368.08 278.79Q1353.80 278.79 1346.94 269.69Q1340.08 260.59 1340.08 244.77Q1340.08 225.73 1349.32 215.09Q1358.56 204.45 1377.04 204.45Q1388.94 204.45 1401.96 209.35M1385.72 254.71L1385.72 218.45Q1381.80 216.63 1374.94 216.63Q1365.56 216.63 1361.36 224.19Q1357.16 231.75 1357.16 244.21Q1357.16 266.89 1371.72 266.89Q1377.88 266.89 1381.80 263.18Q1385.72 259.47 1385.72 254.71M1418.48 177.15L1443.54 177.15L1443.54 265.35L1451.52 265.77L1451.52 276.97L1418.20 276.97L1418.20 266.33L1422.82 265.91Q1426.88 265.49 1426.88 261.43L1426.88 192.41Q1426.88 189.33 1423.38 189.05L1418.48 188.77" fill="#242626"/>
  <path d="M668.55 368.19Q668.85 368.19 669.08 368.44L670.55 370.01Q668.87 371.95 666.49 373.03Q664.10 374.12 660.72 374.12Q657.80 374.12 655.40 373.10Q653.01 372.08 651.32 370.25Q649.63 368.42 648.70 365.85Q647.76 363.29 647.76 360.21Q647.76 357.13 648.73 354.57Q649.70 352 651.46 350.16Q653.22 348.31 655.67 347.30Q658.12 346.28 661.08 346.28Q663.99 346.28 666.21 347.21Q668.44 348.14 670.13 349.74L668.91 351.43Q668.80 351.62 668.62 351.74Q668.44 351.87 668.13 351.87Q667.79 351.87 667.30 351.50Q666.80 351.13 666 350.67Q665.21 350.21 664.01 349.84Q662.81 349.47 661.06 349.47Q658.96 349.47 657.21 350.21Q655.46 350.94 654.20 352.32Q652.93 353.71 652.23 355.71Q651.53 357.70 651.53 360.21Q651.53 362.75 652.26 364.75Q652.99 366.75 654.25 368.12Q655.52 369.50 657.24 370.22Q658.96 370.94 660.95 370.94Q662.17 370.94 663.15 370.80Q664.12 370.66 664.95 370.35Q665.78 370.05 666.49 369.59Q667.20 369.12 667.90 368.47Q668.23 368.19 668.55 368.19M684.45 369.14L684.45 365.15Q682.12 365.22 680.47 365.52Q678.83 365.81 677.79 366.29Q676.76 366.76 676.29 367.41Q675.83 368.06 675.83 368.85Q675.83 369.61 676.07 370.16Q676.32 370.72 676.75 371.07Q677.18 371.42 677.76 371.58Q678.34 371.74 679 371.74Q679.89 371.74 680.63 371.56Q681.38 371.38 682.03 371.04Q682.69 370.70 683.29 370.22Q683.88 369.75 684.45 369.14M674.14 358.37L673.53 357.28Q675.12 355.74 676.97 354.98Q678.81 354.22 681.05 354.22Q682.67 354.22 683.92 354.76Q685.18 355.29 686.03 356.24Q686.89 357.19 687.32 358.54Q687.76 359.89 687.76 361.50L687.76 373.81L686.26 373.81Q685.76 373.81 685.50 373.65Q685.23 373.49 685.08 373.01L684.70 371.19Q683.94 371.89 683.22 372.44Q682.50 372.98 681.70 373.35Q680.90 373.72 680 373.92Q679.10 374.12 677.99 374.12Q676.87 374.12 675.88 373.80Q674.90 373.49 674.17 372.86Q673.43 372.24 673.01 371.28Q672.58 370.32 672.58 369.01Q672.58 367.87 673.21 366.81Q673.83 365.76 675.24 364.94Q676.64 364.12 678.91 363.60Q681.17 363.08 684.45 363L684.45 361.50Q684.45 359.26 683.48 358.11Q682.52 356.96 680.65 356.96Q679.40 356.96 678.55 357.27Q677.71 357.59 677.09 357.98Q676.47 358.37 676.03 358.68Q675.58 358.99 675.14 358.99Q674.80 358.99 674.55 358.81Q674.31 358.63 674.14 358.37M698.82 374.12Q696.54 374.12 695.31 372.84Q694.09 371.57 694.09 369.18L694.09 357.40L691.77 357.40Q691.46 357.40 691.26 357.22Q691.05 357.04 691.05 356.66L691.05 355.31L694.20 354.91L694.98 348.96Q695.04 348.68 695.24 348.50Q695.44 348.31 695.76 348.31L697.47 348.31L697.47 354.95L703.04 354.95L703.04 357.40L697.47 357.40L697.47 368.95Q697.47 370.16 698.06 370.75Q698.65 371.34 699.58 371.34Q700.11 371.34 700.50 371.20Q700.89 371.06 701.17 370.89Q701.46 370.72 701.66 370.57Q701.86 370.43 702.01 370.43Q702.28 370.43 702.48 370.75L703.47 372.37Q702.60 373.19 701.36 373.65Q700.13 374.12 698.82 374.12M720.82 356.77L719.93 357.99Q719.77 358.19 719.62 358.31Q719.47 358.42 719.20 358.42Q718.92 358.42 718.58 358.19Q718.24 357.95 717.73 357.66Q717.23 357.38 716.50 357.14Q715.77 356.90 714.70 356.90Q713.28 356.90 712.19 357.41Q711.11 357.91 710.38 358.86Q709.65 359.81 709.28 361.16Q708.91 362.51 708.91 364.18Q708.91 365.93 709.31 367.29Q709.70 368.64 710.44 369.57Q711.17 370.49 712.20 370.97Q713.24 371.46 714.53 371.46Q715.77 371.46 716.56 371.16Q717.36 370.87 717.88 370.51Q718.41 370.15 718.76 369.85Q719.11 369.56 719.45 369.56Q719.87 369.56 720.10 369.88L721.05 371.12Q720.42 371.89 719.62 372.44Q718.82 373 717.90 373.37Q716.98 373.74 715.97 373.91Q714.97 374.08 713.92 374.08Q712.12 374.08 710.57 373.41Q709.02 372.75 707.88 371.49Q706.74 370.22 706.09 368.38Q705.45 366.54 705.45 364.18Q705.45 362.03 706.05 360.21Q706.65 358.38 707.80 357.06Q708.94 355.74 710.63 355Q712.31 354.26 714.49 354.26Q716.53 354.26 718.07 354.92Q719.62 355.57 720.82 356.77M728.08 345.83L728.08 357.13Q729.31 355.82 730.81 355.04Q732.31 354.26 734.27 354.26Q735.85 354.26 737.06 354.78Q738.26 355.31 739.07 356.27Q739.88 357.23 740.29 358.57Q740.71 359.92 740.71 361.56L740.71 373.81L737.31 373.81L737.31 361.56Q737.31 359.37 736.31 358.17Q735.32 356.96 733.28 356.96Q731.78 356.96 730.48 357.68Q729.18 358.40 728.08 359.64L728.08 373.81L724.68 373.81L724.68 345.83L728.08 345.83M748.24 362.09L758.76 362.09Q758.76 360.91 758.43 359.93Q758.10 358.95 757.46 358.24Q756.82 357.53 755.91 357.14Q755 356.75 753.84 356.75Q751.41 356.75 749.99 358.17Q748.58 359.58 748.24 362.09M760.55 369.88L761.50 371.12Q760.87 371.88 760 372.44Q759.12 373 758.13 373.36Q757.13 373.72 756.06 373.90Q755 374.08 753.96 374.08Q751.96 374.08 750.28 373.40Q748.60 372.73 747.37 371.43Q746.15 370.13 745.46 368.21Q744.78 366.29 744.78 363.80Q744.78 361.79 745.40 360.04Q746.01 358.29 747.17 357.01Q748.33 355.72 750 354.99Q751.68 354.26 753.77 354.26Q755.49 354.26 756.97 354.84Q758.44 355.42 759.51 356.51Q760.59 357.61 761.19 359.21Q761.80 360.82 761.80 362.87Q761.80 363.67 761.63 363.93Q761.46 364.20 760.99 364.20L748.12 364.20Q748.18 366.02 748.63 367.37Q749.07 368.72 749.87 369.62Q750.67 370.53 751.77 370.97Q752.87 371.42 754.24 371.42Q755.51 371.42 756.44 371.12Q757.36 370.83 758.02 370.49Q758.69 370.15 759.13 369.85Q759.58 369.56 759.90 369.56Q760.32 369.56 760.55 369.88M777.91 356.50L777.15 357.74Q776.93 358.16 776.45 358.16Q776.17 358.16 775.81 357.95Q775.44 357.74 774.92 357.48Q774.40 357.23 773.68 357.01Q772.96 356.79 771.97 356.79Q771.11 356.79 770.43 357.01Q769.74 357.23 769.26 357.61Q768.78 357.99 768.52 358.49Q768.26 358.99 768.26 359.58Q768.26 360.32 768.69 360.82Q769.12 361.31 769.82 361.67Q770.52 362.03 771.42 362.31Q772.31 362.58 773.25 362.90Q774.19 363.21 775.08 363.59Q775.98 363.97 776.68 364.54Q777.38 365.11 777.81 365.94Q778.24 366.76 778.24 367.92Q778.24 369.25 777.76 370.38Q777.29 371.51 776.36 372.34Q775.43 373.17 774.08 373.64Q772.73 374.12 770.96 374.12Q768.95 374.12 767.31 373.46Q765.68 372.81 764.54 371.78L765.34 370.49Q765.49 370.24 765.70 370.11Q765.91 369.97 766.23 369.97Q766.57 369.97 766.95 370.24Q767.33 370.51 767.87 370.83Q768.41 371.15 769.19 371.42Q769.97 371.69 771.13 371.69Q772.12 371.69 772.86 371.43Q773.60 371.17 774.10 370.74Q774.59 370.30 774.83 369.73Q775.06 369.16 775.06 368.51Q775.06 367.71 774.64 367.19Q774.21 366.67 773.51 366.30Q772.80 365.93 771.90 365.65Q771 365.38 770.06 365.07Q769.12 364.77 768.21 364.38Q767.31 363.99 766.61 363.40Q765.91 362.81 765.48 361.95Q765.05 361.08 765.05 359.85Q765.05 358.75 765.51 357.73Q765.96 356.71 766.84 355.94Q767.71 355.17 768.98 354.72Q770.26 354.26 771.89 354.26Q773.79 354.26 775.30 354.86Q776.81 355.46 777.91 356.50M798.04 374.12Q795.76 374.12 794.53 372.84Q793.30 371.57 793.30 369.18L793.30 357.40L790.99 357.40Q790.68 357.40 790.47 357.22Q790.26 357.04 790.26 356.66L790.26 355.31L793.42 354.91L794.20 348.96Q794.25 348.68 794.45 348.50Q794.65 348.31 794.98 348.31L796.69 348.31L796.69 354.95L802.25 354.95L802.25 357.40L796.69 357.40L796.69 368.95Q796.69 370.16 797.28 370.75Q797.86 371.34 798.80 371.34Q799.33 371.34 799.72 371.20Q800.11 371.06 800.39 370.89Q800.68 370.72 800.88 370.57Q801.08 370.43 801.23 370.43Q801.49 370.43 801.70 370.75L802.69 372.37Q801.82 373.19 800.58 373.65Q799.35 374.12 798.04 374.12M809.15 345.83L809.15 357.13Q810.39 355.82 811.89 355.04Q813.39 354.26 815.34 354.26Q816.92 354.26 818.13 354.78Q819.33 355.31 820.14 356.27Q820.95 357.23 821.37 358.57Q821.79 359.92 821.79 361.56L821.79 373.81L818.38 373.81L818.38 361.56Q818.38 359.37 817.39 358.17Q816.39 356.96 814.36 356.96Q812.86 356.96 811.55 357.68Q810.25 358.40 809.15 359.64L809.15 373.81L805.75 373.81L805.75 345.83L809.15 345.83M829.31 362.09L839.84 362.09Q839.84 360.91 839.50 359.93Q839.17 358.95 838.53 358.24Q837.90 357.53 836.99 357.14Q836.07 356.75 834.91 356.75Q832.48 356.75 831.07 358.17Q829.65 359.58 829.31 362.09M841.62 369.88L842.57 371.12Q841.94 371.88 841.07 372.44Q840.20 373 839.20 373.36Q838.20 373.72 837.14 373.90Q836.07 374.08 835.03 374.08Q833.03 374.08 831.35 373.40Q829.67 372.73 828.44 371.43Q827.22 370.13 826.54 368.21Q825.85 366.29 825.85 363.80Q825.85 361.79 826.47 360.04Q827.09 358.29 828.25 357.01Q829.40 355.72 831.08 354.99Q832.75 354.26 834.84 354.26Q836.57 354.26 838.04 354.84Q839.51 355.42 840.59 356.51Q841.66 357.61 842.27 359.21Q842.88 360.82 842.88 362.87Q842.88 363.67 842.70 363.93Q842.53 364.20 842.06 364.20L829.20 364.20Q829.25 366.02 829.70 367.37Q830.15 368.72 830.94 369.62Q831.74 370.53 832.84 370.97Q833.95 371.42 835.31 371.42Q836.59 371.42 837.51 371.12Q838.43 370.83 839.09 370.49Q839.76 370.15 840.21 369.85Q840.65 369.56 840.98 369.56Q841.39 369.56 841.62 369.88M868.72 356.50L867.96 357.74Q867.73 358.16 867.25 358.16Q866.97 358.16 866.61 357.95Q866.25 357.74 865.72 357.48Q865.20 357.23 864.48 357.01Q863.76 356.79 862.77 356.79Q861.91 356.79 861.23 357.01Q860.55 357.23 860.06 357.61Q859.58 357.99 859.32 358.49Q859.06 358.99 859.06 359.58Q859.06 360.32 859.49 360.82Q859.92 361.31 860.62 361.67Q861.32 362.03 862.22 362.31Q863.11 362.58 864.05 362.90Q864.99 363.21 865.88 363.59Q866.78 363.97 867.48 364.54Q868.18 365.11 868.61 365.94Q869.04 366.76 869.04 367.92Q869.04 369.25 868.56 370.38Q868.09 371.51 867.16 372.34Q866.23 373.17 864.88 373.64Q863.53 374.12 861.76 374.12Q859.75 374.12 858.11 373.46Q856.48 372.81 855.34 371.78L856.14 370.49Q856.29 370.24 856.50 370.11Q856.71 369.97 857.03 369.97Q857.37 369.97 857.75 370.24Q858.13 370.51 858.67 370.83Q859.22 371.15 859.99 371.42Q860.77 371.69 861.93 371.69Q862.92 371.69 863.66 371.43Q864.40 371.17 864.90 370.74Q865.39 370.30 865.63 369.73Q865.87 369.16 865.87 368.51Q865.87 367.71 865.44 367.19Q865.01 366.67 864.31 366.30Q863.60 365.93 862.70 365.65Q861.80 365.38 860.86 365.07Q859.92 364.77 859.02 364.38Q858.11 363.99 857.41 363.40Q856.71 362.81 856.28 361.95Q855.85 361.08 855.85 359.85Q855.85 358.75 856.31 357.73Q856.76 356.71 857.64 355.94Q858.51 355.17 859.79 354.72Q861.06 354.26 862.69 354.26Q864.59 354.26 866.10 354.86Q867.61 355.46 868.72 356.50M876.60 373.81L873.20 373.81L873.20 354.57L875.23 354.57Q875.95 354.57 876.13 355.27L876.37 357.25Q877.44 355.93 878.77 355.10Q880.10 354.26 881.84 354.26Q883.78 354.26 884.99 355.34Q886.20 356.43 886.73 358.27Q887.15 357.23 887.80 356.47Q888.46 355.71 889.27 355.21Q890.09 354.72 891.01 354.49Q891.93 354.26 892.88 354.26Q894.40 354.26 895.59 354.75Q896.78 355.23 897.60 356.16Q898.43 357.09 898.87 358.45Q899.31 359.81 899.31 361.56L899.31 373.81L895.90 373.81L895.90 361.56Q895.90 359.30 894.92 358.13Q893.93 356.96 892.07 356.96Q891.23 356.96 890.48 357.25Q889.73 357.55 889.16 358.12Q888.59 358.69 888.26 359.55Q887.92 360.42 887.92 361.56L887.92 373.81L884.52 373.81L884.52 361.56Q884.52 359.24 883.59 358.10Q882.66 356.96 880.88 356.96Q879.62 356.96 878.56 357.63Q877.49 358.31 876.60 359.47L876.60 373.81M912.57 354.26Q914.68 354.26 916.37 354.96Q918.06 355.67 919.26 356.96Q920.45 358.25 921.09 360.09Q921.73 361.92 921.73 364.18Q921.73 366.46 921.09 368.28Q920.45 370.11 919.26 371.40Q918.06 372.69 916.37 373.39Q914.68 374.08 912.57 374.08Q910.44 374.08 908.74 373.39Q907.04 372.69 905.84 371.40Q904.64 370.11 904.01 368.28Q903.37 366.46 903.37 364.18Q903.37 361.92 904.01 360.09Q904.64 358.25 905.84 356.96Q907.04 355.67 908.74 354.96Q910.44 354.26 912.57 354.26M912.57 371.44Q915.42 371.44 916.82 369.53Q918.23 367.62 918.23 364.20Q918.23 360.76 916.82 358.84Q915.42 356.92 912.57 356.92Q911.12 356.92 910.05 357.42Q908.98 357.91 908.26 358.84Q907.55 359.77 907.20 361.13Q906.85 362.49 906.85 364.20Q906.85 367.62 908.26 369.53Q909.68 371.44 912.57 371.44M926 345.83L929.40 345.83L929.40 362.30L930.28 362.30Q930.66 362.30 930.91 362.19Q931.17 362.09 931.45 361.77L937.53 355.25Q937.80 354.93 938.09 354.75Q938.39 354.57 938.88 354.57L941.94 354.57L934.85 362.11Q934.34 362.75 933.75 363.12Q934.09 363.34 934.37 363.64Q934.65 363.93 934.89 364.31L942.42 373.81L939.40 373.81Q938.96 373.81 938.64 373.67Q938.33 373.53 938.10 373.15L931.78 365.26Q931.49 364.86 931.22 364.74Q930.94 364.62 930.37 364.62L929.40 364.62L929.40 373.81L926 373.81L926 345.83M947.66 362.09L958.19 362.09Q958.19 360.91 957.85 359.93Q957.52 358.95 956.88 358.24Q956.25 357.53 955.34 357.14Q954.42 356.75 953.27 356.75Q950.83 356.75 949.42 358.17Q948 359.58 947.66 362.09M959.97 369.88L960.92 371.12Q960.30 371.88 959.42 372.44Q958.55 373 957.55 373.36Q956.55 373.72 955.49 373.90Q954.42 374.08 953.38 374.08Q951.38 374.08 949.70 373.40Q948.02 372.73 946.80 371.43Q945.57 370.13 944.89 368.21Q944.20 366.29 944.20 363.80Q944.20 361.79 944.82 360.04Q945.44 358.29 946.60 357.01Q947.76 355.72 949.43 354.99Q951.10 354.26 953.19 354.26Q954.92 354.26 956.39 354.84Q957.86 355.42 958.94 356.51Q960.01 357.61 960.62 359.21Q961.23 360.82 961.23 362.87Q961.23 363.67 961.06 363.93Q960.88 364.20 960.41 364.20L947.55 364.20Q947.60 366.02 948.05 367.37Q948.50 368.72 949.29 369.62Q950.09 370.53 951.19 370.97Q952.30 371.42 953.66 371.42Q954.94 371.42 955.86 371.12Q956.78 370.83 957.45 370.49Q958.11 370.15 958.56 369.85Q959 369.56 959.33 369.56Q959.74 369.56 959.97 369.88M978.50 359.87L978.50 369.18Q979.43 370.43 980.54 370.94Q981.65 371.46 982.98 371.46Q985.70 371.46 987.14 369.54Q988.59 367.62 988.59 363.82Q988.59 360.28 987.30 358.62Q986.02 356.96 983.65 356.96Q981.99 356.96 980.77 357.72Q979.54 358.48 978.50 359.87M978.50 345.83L978.50 357.34Q979.71 355.93 981.24 355.10Q982.77 354.26 984.77 354.26Q986.46 354.26 987.82 354.91Q989.18 355.55 990.13 356.78Q991.08 358 991.58 359.75Q992.08 361.50 992.08 363.69Q992.08 366.02 991.51 367.94Q990.94 369.86 989.87 371.22Q988.80 372.58 987.26 373.33Q985.72 374.08 983.80 374.08Q981.90 374.08 980.60 373.37Q979.30 372.65 978.33 371.34L978.16 373.09Q978 373.81 977.28 373.81L975.10 373.81L975.10 345.83L978.50 345.83M998.73 362.09L1009.26 362.09Q1009.26 360.91 1008.93 359.93Q1008.59 358.95 1007.96 358.24Q1007.32 357.53 1006.41 357.14Q1005.50 356.75 1004.34 356.75Q1001.91 356.75 1000.49 358.17Q999.07 359.58 998.73 362.09M1011.04 369.88L1011.99 371.12Q1011.37 371.88 1010.49 372.44Q1009.62 373 1008.62 373.36Q1007.62 373.72 1006.56 373.90Q1005.50 374.08 1004.45 374.08Q1002.46 374.08 1000.77 373.40Q999.09 372.73 997.87 371.43Q996.64 370.13 995.96 368.21Q995.27 366.29 995.27 363.80Q995.27 361.79 995.89 360.04Q996.51 358.29 997.67 357.01Q998.83 355.72 1000.50 354.99Q1002.17 354.26 1004.26 354.26Q1005.99 354.26 1007.46 354.84Q1008.94 355.42 1010.01 356.51Q1011.08 357.61 1011.69 359.21Q1012.30 360.82 1012.30 362.87Q1012.30 363.67 1012.13 363.93Q1011.96 364.20 1011.48 364.20L998.62 364.20Q998.68 366.02 999.12 367.37Q999.57 368.72 1000.37 369.62Q1001.16 370.53 1002.27 370.97Q1003.37 371.42 1004.74 371.42Q1006.01 371.42 1006.93 371.12Q1007.85 370.83 1008.52 370.49Q1009.18 370.15 1009.63 369.85Q1010.08 369.56 1010.40 369.56Q1010.82 369.56 1011.04 369.88M1021.10 373.81L1017.69 373.81L1017.69 357.45L1015.57 357.21Q1015.17 357.11 1014.91 356.91Q1014.65 356.71 1014.65 356.33L1014.65 354.95L1017.69 354.95L1017.69 353.08Q1017.69 351.43 1018.16 350.15Q1018.63 348.87 1019.49 347.98Q1020.35 347.10 1021.57 346.64Q1022.79 346.19 1024.31 346.19Q1025.60 346.19 1026.68 346.57L1026.61 348.26Q1026.57 348.71 1026.10 348.75Q1025.64 348.79 1024.86 348.79Q1023.98 348.79 1023.27 349.02Q1022.56 349.25 1022.05 349.76Q1021.53 350.27 1021.26 351.11Q1020.98 351.94 1020.98 353.18L1020.98 354.95L1026.53 354.95L1026.53 357.40L1021.10 357.40L1021.10 373.81M1037.87 354.26Q1039.98 354.26 1041.67 354.96Q1043.36 355.67 1044.56 356.96Q1045.76 358.25 1046.39 360.09Q1047.03 361.92 1047.03 364.18Q1047.03 366.46 1046.39 368.28Q1045.76 370.11 1044.56 371.40Q1043.36 372.69 1041.67 373.39Q1039.98 374.08 1037.87 374.08Q1035.74 374.08 1034.04 373.39Q1032.34 372.69 1031.15 371.40Q1029.95 370.11 1029.31 368.28Q1028.68 366.46 1028.68 364.18Q1028.68 361.92 1029.31 360.09Q1029.95 358.25 1031.15 356.96Q1032.34 355.67 1034.04 354.96Q1035.74 354.26 1037.87 354.26M1037.87 371.44Q1040.72 371.44 1042.13 369.53Q1043.53 367.62 1043.53 364.20Q1043.53 360.76 1042.13 358.84Q1040.72 356.92 1037.87 356.92Q1036.43 356.92 1035.35 357.42Q1034.28 357.91 1033.57 358.84Q1032.86 359.77 1032.50 361.13Q1032.15 362.49 1032.15 364.20Q1032.15 367.62 1033.57 369.53Q1034.98 371.44 1037.87 371.44M1054.29 355.50L1054.52 358.42Q1055.43 356.45 1056.76 355.34Q1058.09 354.22 1060.01 354.22Q1060.62 354.22 1061.18 354.36Q1061.74 354.49 1062.17 354.77L1061.93 357.30Q1061.81 357.78 1061.36 357.78Q1061.09 357.78 1060.58 357.66Q1060.06 357.55 1059.42 357.55Q1058.51 357.55 1057.79 357.81Q1057.08 358.08 1056.52 358.60Q1055.96 359.13 1055.51 359.90Q1055.07 360.66 1054.71 361.65L1054.71 373.81L1051.31 373.81L1051.31 354.57L1053.24 354.57Q1053.79 354.57 1054 354.77Q1054.21 354.98 1054.29 355.50M1067.49 362.09L1078.02 362.09Q1078.02 360.91 1077.69 359.93Q1077.35 358.95 1076.72 358.24Q1076.08 357.53 1075.17 357.14Q1074.26 356.75 1073.10 356.75Q1070.67 356.75 1069.25 358.17Q1067.84 359.58 1067.49 362.09M1079.81 369.88L1080.76 371.12Q1080.13 371.88 1079.25 372.44Q1078.38 373 1077.38 373.36Q1076.39 373.72 1075.32 373.90Q1074.26 374.08 1073.21 374.08Q1071.22 374.08 1069.54 373.40Q1067.85 372.73 1066.63 371.43Q1065.40 370.13 1064.72 368.21Q1064.04 366.29 1064.04 363.80Q1064.04 361.79 1064.65 360.04Q1065.27 358.29 1066.43 357.01Q1067.59 355.72 1069.26 354.99Q1070.93 354.26 1073.02 354.26Q1074.75 354.26 1076.22 354.84Q1077.70 355.42 1078.77 356.51Q1079.84 357.61 1080.45 359.21Q1081.06 360.82 1081.06 362.87Q1081.06 363.67 1080.89 363.93Q1080.72 364.20 1080.24 364.20L1067.38 364.20Q1067.44 366.02 1067.88 367.37Q1068.33 368.72 1069.13 369.62Q1069.93 370.53 1071.03 370.97Q1072.13 371.42 1073.50 371.42Q1074.77 371.42 1075.69 371.12Q1076.61 370.83 1077.28 370.49Q1077.94 370.15 1078.39 369.85Q1078.84 369.56 1079.16 369.56Q1079.58 369.56 1079.81 369.88M1100.84 374.12Q1098.56 374.12 1097.33 372.84Q1096.11 371.57 1096.11 369.18L1096.11 357.40L1093.79 357.40Q1093.49 357.40 1093.28 357.22Q1093.07 357.04 1093.07 356.66L1093.07 355.31L1096.22 354.91L1097 348.96Q1097.06 348.68 1097.26 348.50Q1097.46 348.31 1097.78 348.31L1099.49 348.31L1099.49 354.95L1105.06 354.95L1105.06 357.40L1099.49 357.40L1099.49 368.95Q1099.49 370.16 1100.08 370.75Q1100.67 371.34 1101.60 371.34Q1102.13 371.34 1102.52 371.20Q1102.91 371.06 1103.19 370.89Q1103.48 370.72 1103.68 370.57Q1103.88 370.43 1104.03 370.43Q1104.30 370.43 1104.51 370.75L1105.49 372.37Q1104.62 373.19 1103.38 373.65Q1102.15 374.12 1100.84 374.12M1111.95 345.83L1111.95 357.13Q1113.19 355.82 1114.69 355.04Q1116.19 354.26 1118.15 354.26Q1119.72 354.26 1120.93 354.78Q1122.14 355.31 1122.94 356.27Q1123.75 357.23 1124.17 358.57Q1124.59 359.92 1124.59 361.56L1124.59 373.81L1121.19 373.81L1121.19 361.56Q1121.19 359.37 1120.19 358.17Q1119.19 356.96 1117.16 356.96Q1115.66 356.96 1114.36 357.68Q1113.06 358.40 1111.95 359.64L1111.95 373.81L1108.55 373.81L1108.55 345.83L1111.95 345.83M1132.11 362.09L1142.64 362.09Q1142.64 360.91 1142.31 359.93Q1141.97 358.95 1141.34 358.24Q1140.70 357.53 1139.79 357.14Q1138.88 356.75 1137.72 356.75Q1135.29 356.75 1133.87 358.17Q1132.45 359.58 1132.11 362.09M1144.42 369.88L1145.37 371.12Q1144.75 371.88 1143.87 372.44Q1143 373 1142 373.36Q1141 373.72 1139.94 373.90Q1138.88 374.08 1137.83 374.08Q1135.84 374.08 1134.15 373.40Q1132.47 372.73 1131.25 371.43Q1130.02 370.13 1129.34 368.21Q1128.65 366.29 1128.65 363.80Q1128.65 361.79 1129.27 360.04Q1129.89 358.29 1131.05 357.01Q1132.21 355.72 1133.88 354.99Q1135.55 354.26 1137.64 354.26Q1139.37 354.26 1140.84 354.84Q1142.32 355.42 1143.39 356.51Q1144.46 357.61 1145.07 359.21Q1145.68 360.82 1145.68 362.87Q1145.68 363.67 1145.51 363.93Q1145.34 364.20 1144.86 364.20L1132 364.20Q1132.06 366.02 1132.50 367.37Q1132.95 368.72 1133.75 369.62Q1134.54 370.53 1135.65 370.97Q1136.75 371.42 1138.12 371.42Q1139.39 371.42 1140.31 371.12Q1141.23 370.83 1141.90 370.49Q1142.56 370.15 1143.01 369.85Q1143.46 369.56 1143.78 369.56Q1144.20 369.56 1144.42 369.88M1162.53 355.50L1162.76 358.42Q1163.67 356.45 1165 355.34Q1166.33 354.22 1168.25 354.22Q1168.86 354.22 1169.42 354.36Q1169.98 354.49 1170.42 354.77L1170.17 357.30Q1170.06 357.78 1169.60 357.78Q1169.33 357.78 1168.82 357.66Q1168.31 357.55 1167.66 357.55Q1166.75 357.55 1166.04 357.81Q1165.32 358.08 1164.76 358.60Q1164.20 359.13 1163.76 359.90Q1163.31 360.66 1162.95 361.65L1162.95 373.81L1159.55 373.81L1159.55 354.57L1161.49 354.57Q1162.04 354.57 1162.25 354.77Q1162.46 354.98 1162.53 355.50M1175.74 362.09L1186.26 362.09Q1186.26 360.91 1185.93 359.93Q1185.60 358.95 1184.96 358.24Q1184.32 357.53 1183.41 357.14Q1182.50 356.75 1181.34 356.75Q1178.91 356.75 1177.49 358.17Q1176.08 359.58 1175.74 362.09M1188.05 369.88L1189 371.12Q1188.37 371.88 1187.50 372.44Q1186.62 373 1185.63 373.36Q1184.63 373.72 1183.56 373.90Q1182.50 374.08 1181.46 374.08Q1179.46 374.08 1177.78 373.40Q1176.10 372.73 1174.87 371.43Q1173.65 370.13 1172.96 368.21Q1172.28 366.29 1172.28 363.80Q1172.28 361.79 1172.90 360.04Q1173.51 358.29 1174.67 357.01Q1175.83 355.72 1177.50 354.99Q1179.18 354.26 1181.27 354.26Q1182.99 354.26 1184.47 354.84Q1185.94 355.42 1187.01 356.51Q1188.09 357.61 1188.69 359.21Q1189.30 360.82 1189.30 362.87Q1189.30 363.67 1189.13 363.93Q1188.96 364.20 1188.49 364.20L1175.62 364.20Q1175.68 366.02 1176.13 367.37Q1176.57 368.72 1177.37 369.62Q1178.17 370.53 1179.27 370.97Q1180.37 371.42 1181.74 371.42Q1183.01 371.42 1183.94 371.12Q1184.86 370.83 1185.52 370.49Q1186.19 370.15 1186.63 369.85Q1187.08 369.56 1187.40 369.56Q1187.82 369.56 1188.05 369.88M1196.85 359.87L1196.85 369.18Q1197.78 370.43 1198.89 370.94Q1200 371.46 1201.33 371.46Q1204.05 371.46 1205.49 369.54Q1206.93 367.62 1206.93 363.82Q1206.93 360.28 1205.65 358.62Q1204.37 356.96 1201.99 356.96Q1200.34 356.96 1199.12 357.72Q1197.89 358.48 1196.85 359.87M1196.85 345.83L1196.85 357.34Q1198.06 355.93 1199.59 355.10Q1201.12 354.26 1203.12 354.26Q1204.81 354.26 1206.17 354.91Q1207.52 355.55 1208.47 356.78Q1209.42 358 1209.93 359.75Q1210.43 361.50 1210.43 363.69Q1210.43 366.02 1209.86 367.94Q1209.29 369.86 1208.22 371.22Q1207.14 372.58 1205.60 373.33Q1204.07 374.08 1202.15 374.08Q1200.25 374.08 1198.95 373.37Q1197.64 372.65 1196.67 371.34L1196.50 373.09Q1196.35 373.81 1195.63 373.81L1193.44 373.81L1193.44 345.83L1196.85 345.83M1222.84 354.26Q1224.95 354.26 1226.64 354.96Q1228.33 355.67 1229.53 356.96Q1230.72 358.25 1231.36 360.09Q1232 361.92 1232 364.18Q1232 366.46 1231.36 368.28Q1230.72 370.11 1229.53 371.40Q1228.33 372.69 1226.64 373.39Q1224.95 374.08 1222.84 374.08Q1220.71 374.08 1219.01 373.39Q1217.31 372.69 1216.11 371.40Q1214.91 370.11 1214.28 368.28Q1213.64 366.46 1213.64 364.18Q1213.64 361.92 1214.28 360.09Q1214.91 358.25 1216.11 356.96Q1217.31 355.67 1219.01 354.96Q1220.71 354.26 1222.84 354.26M1222.84 371.44Q1225.69 371.44 1227.09 369.53Q1228.50 367.62 1228.50 364.20Q1228.50 360.76 1227.09 358.84Q1225.69 356.92 1222.84 356.92Q1221.39 356.92 1220.32 357.42Q1219.25 357.91 1218.53 358.84Q1217.82 359.77 1217.47 361.13Q1217.12 362.49 1217.12 364.20Q1217.12 367.62 1218.53 369.53Q1219.95 371.44 1222.84 371.44M1244.38 354.26Q1246.49 354.26 1248.18 354.96Q1249.87 355.67 1251.07 356.96Q1252.27 358.25 1252.91 360.09Q1253.54 361.92 1253.54 364.18Q1253.54 366.46 1252.91 368.28Q1252.27 370.11 1251.07 371.40Q1249.87 372.69 1248.18 373.39Q1246.49 374.08 1244.38 374.08Q1242.26 374.08 1240.56 373.39Q1238.85 372.69 1237.66 371.40Q1236.46 370.11 1235.82 368.28Q1235.19 366.46 1235.19 364.18Q1235.19 361.92 1235.82 360.09Q1236.46 358.25 1237.66 356.96Q1238.85 355.67 1240.56 354.96Q1242.26 354.26 1244.38 354.26M1244.38 371.44Q1247.23 371.44 1248.64 369.53Q1250.05 367.62 1250.05 364.20Q1250.05 360.76 1248.64 358.84Q1247.23 356.92 1244.38 356.92Q1242.94 356.92 1241.87 357.42Q1240.79 357.91 1240.08 358.84Q1239.37 359.77 1239.02 361.13Q1238.66 362.49 1238.66 364.20Q1238.66 367.62 1240.08 369.53Q1241.50 371.44 1244.38 371.44M1263.73 374.12Q1261.45 374.12 1260.22 372.84Q1258.99 371.57 1258.99 369.18L1258.99 357.40L1256.68 357.40Q1256.37 357.40 1256.16 357.22Q1255.95 357.04 1255.95 356.66L1255.95 355.31L1259.11 354.91L1259.89 348.96Q1259.94 348.68 1260.14 348.50Q1260.34 348.31 1260.67 348.31L1262.38 348.31L1262.38 354.95L1267.94 354.95L1267.94 357.40L1262.38 357.40L1262.38 368.95Q1262.38 370.16 1262.97 370.75Q1263.55 371.34 1264.49 371.34Q1265.02 371.34 1265.41 371.20Q1265.80 371.06 1266.08 370.89Q1266.37 370.72 1266.57 370.57Q1266.77 370.43 1266.92 370.43Q1267.18 370.43 1267.39 370.75L1268.38 372.37Q1267.51 373.19 1266.27 373.65Q1265.04 374.12 1263.73 374.12M1295.46 356.77L1294.56 357.99Q1294.41 358.19 1294.26 358.31Q1294.11 358.42 1293.84 358.42Q1293.56 358.42 1293.21 358.19Q1292.87 357.95 1292.37 357.66Q1291.86 357.38 1291.13 357.14Q1290.40 356.90 1289.34 356.90Q1287.91 356.90 1286.83 357.41Q1285.75 357.91 1285.02 358.86Q1284.28 359.81 1283.91 361.16Q1283.54 362.51 1283.54 364.18Q1283.54 365.93 1283.94 367.29Q1284.34 368.64 1285.07 369.57Q1285.80 370.49 1286.84 370.97Q1287.87 371.46 1289.17 371.46Q1290.40 371.46 1291.20 371.16Q1292 370.87 1292.52 370.51Q1293.04 370.15 1293.39 369.85Q1293.75 369.56 1294.09 369.56Q1294.51 369.56 1294.73 369.88L1295.68 371.12Q1295.06 371.89 1294.26 372.44Q1293.46 373 1292.54 373.37Q1291.62 373.74 1290.61 373.91Q1289.60 374.08 1288.56 374.08Q1286.75 374.08 1285.21 373.41Q1283.66 372.75 1282.52 371.49Q1281.38 370.22 1280.73 368.38Q1280.08 366.54 1280.08 364.18Q1280.08 362.03 1280.68 360.21Q1281.28 358.38 1282.43 357.06Q1283.58 355.74 1285.26 355Q1286.94 354.26 1289.13 354.26Q1291.16 354.26 1292.71 354.92Q1294.26 355.57 1295.46 356.77M1309.74 369.14L1309.74 365.15Q1307.41 365.22 1305.76 365.52Q1304.12 365.81 1303.08 366.29Q1302.05 366.76 1301.58 367.41Q1301.12 368.06 1301.12 368.85Q1301.12 369.61 1301.36 370.16Q1301.61 370.72 1302.04 371.07Q1302.47 371.42 1303.05 371.58Q1303.63 371.74 1304.29 371.74Q1305.18 371.74 1305.92 371.56Q1306.67 371.38 1307.32 371.04Q1307.98 370.70 1308.58 370.22Q1309.17 369.75 1309.74 369.14M1299.43 358.37L1298.82 357.28Q1300.41 355.74 1302.26 354.98Q1304.10 354.22 1306.34 354.22Q1307.96 354.22 1309.21 354.76Q1310.47 355.29 1311.32 356.24Q1312.18 357.19 1312.61 358.54Q1313.05 359.89 1313.05 361.50L1313.05 373.81L1311.55 373.81Q1311.05 373.81 1310.79 373.65Q1310.52 373.49 1310.37 373.01L1309.99 371.19Q1309.23 371.89 1308.51 372.44Q1307.79 372.98 1306.99 373.35Q1306.19 373.72 1305.29 373.92Q1304.39 374.12 1303.28 374.12Q1302.16 374.12 1301.17 373.80Q1300.19 373.49 1299.46 372.86Q1298.72 372.24 1298.30 371.28Q1297.87 370.32 1297.87 369.01Q1297.87 367.87 1298.50 366.81Q1299.12 365.76 1300.53 364.94Q1301.93 364.12 1304.20 363.60Q1306.46 363.08 1309.74 363L1309.74 361.50Q1309.74 359.26 1308.77 358.11Q1307.81 356.96 1305.94 356.96Q1304.69 356.96 1303.84 357.27Q1303 357.59 1302.38 357.98Q1301.76 358.37 1301.32 358.68Q1300.87 358.99 1300.43 358.99Q1300.09 358.99 1299.84 358.81Q1299.60 358.63 1299.43 358.37M1324.11 374.12Q1321.83 374.12 1320.60 372.84Q1319.38 371.57 1319.38 369.18L1319.38 357.40L1317.06 357.40Q1316.75 357.40 1316.55 357.22Q1316.34 357.04 1316.34 356.66L1316.34 355.31L1319.49 354.91L1320.27 348.96Q1320.33 348.68 1320.53 348.50Q1320.73 348.31 1321.05 348.31L1322.76 348.31L1322.76 354.95L1328.33 354.95L1328.33 357.40L1322.76 357.40L1322.76 368.95Q1322.76 370.16 1323.35 370.75Q1323.94 371.34 1324.87 371.34Q1325.40 371.34 1325.79 371.20Q1326.18 371.06 1326.46 370.89Q1326.75 370.72 1326.95 370.57Q1327.15 370.43 1327.30 370.43Q1327.57 370.43 1327.77 370.75L1328.76 372.37Q1327.89 373.19 1326.65 373.65Q1325.42 374.12 1324.11 374.12M1346.11 356.77L1345.22 357.99Q1345.06 358.19 1344.91 358.31Q1344.76 358.42 1344.49 358.42Q1344.21 358.42 1343.87 358.19Q1343.53 357.95 1343.02 357.66Q1342.52 357.38 1341.79 357.14Q1341.06 356.90 1339.99 356.90Q1338.57 356.90 1337.48 357.41Q1336.40 357.91 1335.67 358.86Q1334.94 359.81 1334.57 361.16Q1334.20 362.51 1334.20 364.18Q1334.20 365.93 1334.60 367.29Q1334.99 368.64 1335.73 369.57Q1336.46 370.49 1337.49 370.97Q1338.53 371.46 1339.82 371.46Q1341.06 371.46 1341.85 371.16Q1342.65 370.87 1343.17 370.51Q1343.70 370.15 1344.05 369.85Q1344.40 369.56 1344.74 369.56Q1345.16 369.56 1345.39 369.88L1346.34 371.12Q1345.71 371.89 1344.91 372.44Q1344.11 373 1343.19 373.37Q1342.27 373.74 1341.26 373.91Q1340.26 374.08 1339.21 374.08Q1337.41 374.08 1335.86 373.41Q1334.31 372.75 1333.17 371.49Q1332.03 370.22 1331.38 368.38Q1330.74 366.54 1330.74 364.18Q1330.74 362.03 1331.34 360.21Q1331.94 358.38 1333.09 357.06Q1334.23 355.74 1335.92 355Q1337.60 354.26 1339.78 354.26Q1341.82 354.26 1343.36 354.92Q1344.91 355.57 1346.11 356.77M1353.37 345.83L1353.37 357.13Q1354.60 355.82 1356.10 355.04Q1357.60 354.26 1359.56 354.26Q1361.14 354.26 1362.35 354.78Q1363.55 355.31 1364.36 356.27Q1365.17 357.23 1365.58 358.57Q1366 359.92 1366 361.56L1366 373.81L1362.60 373.81L1362.60 361.56Q1362.60 359.37 1361.60 358.17Q1360.61 356.96 1358.57 356.96Q1357.07 356.96 1355.77 357.68Q1354.47 358.40 1353.37 359.64L1353.37 373.81L1349.97 373.81L1349.97 345.83L1353.37 345.83M1373.53 362.09L1384.05 362.09Q1384.05 360.91 1383.72 359.93Q1383.39 358.95 1382.75 358.24Q1382.11 357.53 1381.20 357.14Q1380.29 356.75 1379.13 356.75Q1376.70 356.75 1375.28 358.17Q1373.87 359.58 1373.53 362.09M1385.84 369.88L1386.79 371.12Q1386.16 371.88 1385.29 372.44Q1384.41 373 1383.42 373.36Q1382.42 373.72 1381.35 373.90Q1380.29 374.08 1379.25 374.08Q1377.25 374.08 1375.57 373.40Q1373.89 372.73 1372.66 371.43Q1371.44 370.13 1370.75 368.21Q1370.07 366.29 1370.07 363.80Q1370.07 361.79 1370.69 360.04Q1371.30 358.29 1372.46 357.01Q1373.62 355.72 1375.29 354.99Q1376.97 354.26 1379.06 354.26Q1380.78 354.26 1382.26 354.84Q1383.73 355.42 1384.80 356.51Q1385.88 357.61 1386.48 359.21Q1387.09 360.82 1387.09 362.87Q1387.09 363.67 1386.92 363.93Q1386.75 364.20 1386.28 364.20L1373.41 364.20Q1373.47 366.02 1373.92 367.37Q1374.36 368.72 1375.16 369.62Q1375.96 370.53 1377.06 370.97Q1378.16 371.42 1379.53 371.42Q1380.80 371.42 1381.73 371.12Q1382.65 370.83 1383.31 370.49Q1383.98 370.15 1384.42 369.85Q1384.87 369.56 1385.19 369.56Q1385.61 369.56 1385.84 369.88M1403.20 356.50L1402.44 357.74Q1402.22 358.16 1401.74 358.16Q1401.46 358.16 1401.10 357.95Q1400.73 357.74 1400.21 357.48Q1399.69 357.23 1398.97 357.01Q1398.25 356.79 1397.26 356.79Q1396.40 356.79 1395.72 357.01Q1395.03 357.23 1394.55 357.61Q1394.07 357.99 1393.81 358.49Q1393.55 358.99 1393.55 359.58Q1393.55 360.32 1393.98 360.82Q1394.41 361.31 1395.11 361.67Q1395.81 362.03 1396.71 362.31Q1397.60 362.58 1398.54 362.90Q1399.48 363.21 1400.37 363.59Q1401.27 363.97 1401.97 364.54Q1402.67 365.11 1403.10 365.94Q1403.53 366.76 1403.53 367.92Q1403.53 369.25 1403.05 370.38Q1402.58 371.51 1401.65 372.34Q1400.72 373.17 1399.37 373.64Q1398.02 374.12 1396.25 374.12Q1394.24 374.12 1392.60 373.46Q1390.97 372.81 1389.83 371.78L1390.63 370.49Q1390.78 370.24 1390.99 370.11Q1391.20 369.97 1391.52 369.97Q1391.86 369.97 1392.24 370.24Q1392.62 370.51 1393.16 370.83Q1393.70 371.15 1394.48 371.42Q1395.26 371.69 1396.42 371.69Q1397.41 371.69 1398.15 371.43Q1398.89 371.17 1399.39 370.74Q1399.88 370.30 1400.12 369.73Q1400.35 369.16 1400.35 368.51Q1400.35 367.71 1399.93 367.19Q1399.50 366.67 1398.80 366.30Q1398.09 365.93 1397.19 365.65Q1396.29 365.38 1395.35 365.07Q1394.41 364.77 1393.51 364.38Q1392.60 363.99 1391.90 363.40Q1391.20 362.81 1390.77 361.95Q1390.34 361.08 1390.34 359.85Q1390.34 358.75 1390.80 357.73Q1391.25 356.71 1392.13 355.94Q1393 355.17 1394.27 354.72Q1395.55 354.26 1397.18 354.26Q1399.08 354.26 1400.59 354.86Q1402.10 355.46 1403.20 356.50M1422.07 373.81L1418.67 373.81L1418.67 357.45L1416.54 357.21Q1416.14 357.11 1415.89 356.91Q1415.63 356.71 1415.63 356.33L1415.63 354.95L1418.67 354.95L1418.67 353.08Q1418.67 351.43 1419.14 350.15Q1419.60 348.87 1420.47 347.98Q1421.33 347.10 1422.55 346.64Q1423.76 346.19 1425.28 346.19Q1426.57 346.19 1427.66 346.57L1427.58 348.26Q1427.54 348.71 1427.08 348.75Q1426.61 348.79 1425.83 348.79Q1424.96 348.79 1424.25 349.02Q1423.53 349.25 1423.02 349.76Q1422.51 350.27 1422.23 351.11Q1421.96 351.94 1421.96 353.18L1421.96 354.95L1427.51 354.95L1427.51 357.40L1422.07 357.40L1422.07 373.81M1430.93 354.57L1434.31 354.57L1434.31 373.81L1430.93 373.81L1430.93 354.57M1435.03 348.52Q1435.03 349.02 1434.83 349.45Q1434.63 349.87 1434.30 350.21Q1433.97 350.54 1433.52 350.73Q1433.07 350.92 1432.58 350.92Q1432.08 350.92 1431.66 350.73Q1431.23 350.54 1430.91 350.21Q1430.58 349.87 1430.39 349.45Q1430.20 349.02 1430.20 348.52Q1430.20 348.03 1430.39 347.58Q1430.58 347.14 1430.91 346.80Q1431.23 346.47 1431.66 346.28Q1432.08 346.09 1432.58 346.09Q1433.07 346.09 1433.52 346.28Q1433.97 346.47 1434.30 346.80Q1434.63 347.14 1434.83 347.58Q1435.03 348.03 1435.03 348.52M1442.84 355.50L1443.07 358.42Q1443.98 356.45 1445.31 355.34Q1446.64 354.22 1448.56 354.22Q1449.17 354.22 1449.73 354.36Q1450.29 354.49 1450.72 354.77L1450.48 357.30Q1450.36 357.78 1449.91 357.78Q1449.64 357.78 1449.13 357.66Q1448.61 357.55 1447.97 357.55Q1447.06 357.55 1446.34 357.81Q1445.63 358.08 1445.07 358.60Q1444.51 359.13 1444.06 359.90Q1443.62 360.66 1443.26 361.65L1443.26 373.81L1439.86 373.81L1439.86 354.57L1441.79 354.57Q1442.34 354.57 1442.55 354.77Q1442.76 354.98 1442.84 355.50M1456.04 362.09L1466.57 362.09Q1466.57 360.91 1466.24 359.93Q1465.90 358.95 1465.27 358.24Q1464.63 357.53 1463.72 357.14Q1462.81 356.75 1461.65 356.75Q1459.22 356.75 1457.80 358.17Q1456.39 359.58 1456.04 362.09M1468.36 369.88L1469.31 371.12Q1468.68 371.88 1467.80 372.44Q1466.93 373 1465.93 373.36Q1464.94 373.72 1463.87 373.90Q1462.81 374.08 1461.76 374.08Q1459.77 374.08 1458.09 373.40Q1456.40 372.73 1455.18 371.43Q1453.95 370.13 1453.27 368.21Q1452.59 366.29 1452.59 363.80Q1452.59 361.79 1453.20 360.04Q1453.82 358.29 1454.98 357.01Q1456.14 355.72 1457.81 354.99Q1459.48 354.26 1461.57 354.26Q1463.30 354.26 1464.77 354.84Q1466.25 355.42 1467.32 356.51Q1468.39 357.61 1469 359.21Q1469.61 360.82 1469.61 362.87Q1469.61 363.67 1469.44 363.93Q1469.27 364.20 1468.79 364.20L1455.93 364.20Q1455.99 366.02 1456.43 367.37Q1456.88 368.72 1457.68 369.62Q1458.48 370.53 1459.58 370.97Q1460.68 371.42 1462.05 371.42Q1463.32 371.42 1464.24 371.12Q1465.16 370.83 1465.83 370.49Q1466.49 370.15 1466.94 369.85Q1467.39 369.56 1467.71 369.56Q1468.13 369.56 1468.36 369.88M1473.18 371.72Q1473.18 371.23 1473.36 370.79Q1473.54 370.35 1473.86 370.03Q1474.17 369.71 1474.61 369.52Q1475.04 369.33 1475.54 369.33Q1476.03 369.33 1476.47 369.52Q1476.91 369.71 1477.23 370.03Q1477.55 370.35 1477.74 370.79Q1477.93 371.23 1477.93 371.72Q1477.93 372.24 1477.74 372.66Q1477.55 373.09 1477.23 373.41Q1476.91 373.74 1476.47 373.92Q1476.03 374.10 1475.54 374.10Q1475.04 374.10 1474.61 373.92Q1474.17 373.74 1473.86 373.41Q1473.54 373.09 1473.36 372.66Q1473.18 372.24 1473.18 371.72" fill="#5a5d5e"/>
</svg>
