<?xml version="1.0" encoding="UTF-8"?>
<svg id="Ebene_2" data-name="Ebene 2" xmlns="http://www.w3.org/2000/svg" viewBox="0 0 993.59 993.56">
  <defs>
    <style>
      .cls-1 {
        fill: #fff;
      }

      .cls-2 {
        fill: #f7a834;
      }

      .cls-3 {
        fill: #f39200;
      }

      .cls-4 {
        fill: #353738;
      }

      .cls-5 {
        fill: #f9cc12;
      }

      .cls-6 {
        fill: #e8651c;
      }

      .cls-7 {
        fill: #f9b233;
      }

      .cls-8 {
        fill: #242626;
      }
    </style>
  </defs>
  <g id="logo">
    <g>
      <path class="cls-1" d="M496.81,983.56c-17.67,0-34.24-6.84-46.66-19.26L29.29,543.44c-25.73-25.73-25.73-67.59,0-93.32L450.15,29.26c12.42-12.42,28.99-19.26,46.66-19.26s34.24,6.84,46.66,19.26l420.86,420.86c12.42,12.42,19.26,28.99,19.26,46.66s-6.84,34.24-19.26,46.66l-420.86,420.86c-12.42,12.42-28.99,19.26-46.66,19.26Z"/>
      <path class="cls-1" d="M496.81,20c14.35,0,28.7,5.44,39.59,16.33l420.86,420.86c21.77,21.77,21.77,57.4,0,79.18l-420.86,420.86c-10.89,10.89-25.24,16.33-39.59,16.33s-28.7-5.44-39.59-16.33L36.36,536.37c-21.77-21.77-21.77-57.4,0-79.18L457.22,36.33c10.89-10.89,25.24-16.33,39.59-16.33M496.81,0c-20.34,0-39.42,7.88-53.73,22.19L22.22,443.05c-29.63,29.63-29.63,77.83,0,107.46l420.86,420.86c14.31,14.31,33.39,22.19,53.73,22.19s39.42-7.88,53.73-22.19l420.86-420.86c14.31-14.31,22.19-33.39,22.19-53.73s-7.88-39.42-22.19-53.73L550.54,22.19c-14.31-14.31-33.39-22.19-53.73-22.19h0Z"/>
    </g>
    <g>
      <path class="cls-1" d="M496.81,938.56c-5.65,0-10.92-2.16-14.84-6.08L61.11,511.62c-8.04-8.04-8.04-21.63,0-29.68L481.97,61.08c3.92-3.92,9.19-6.08,14.84-6.08s10.92,2.16,14.84,6.08l420.86,420.86c8.04,8.04,8.04,21.64,0,29.68l-420.86,420.86c-3.92,3.92-9.19,6.08-14.84,6.08Z"/>
      <path class="cls-4" d="M496.81,95.74l401.04,401.04-401.04,401.04L95.77,496.78,496.81,95.74M496.81,20c-14.35,0-28.7,5.44-39.59,16.33L36.36,457.19c-21.77,21.77-21.77,57.4,0,79.18l420.86,420.86c10.89,10.89,25.24,16.33,39.59,16.33s28.7-5.44,39.59-16.33l420.86-420.86c21.77-21.77,21.77-57.4,0-79.18L536.4,36.33c-10.89-10.89-25.24-16.33-39.59-16.33h0Z"/>
    </g>
    <path class="cls-8" d="M494.51,96.66c1.24-1.24,2.73-1.5,3.76-1.5.11,0,.22,0,.34.01l-9.65-9.65c-1.24-1.24-2.73-1.5-3.76-1.5s-2.52.26-3.76,1.5L73.85,493.11c-2,2-2,5.51,0,7.52l407.59,407.59c1.24,1.24,2.73,1.5,3.76,1.5s2.52-.26,3.76-1.5l9.65-9.65c-.12,0-.23.01-.34.01-1.03,0-2.52-.26-3.76-1.5L93.92,496.78,494.51,96.66Z"/>
    <path class="cls-8" d="M960.2,459.18L535.47,35.36c-10.35-10.33-24-15.5-37.65-15.5-4.48,0-8.95.57-13.32,1.68,8.93,2.28,17.38,6.88,24.34,13.82l424.73,423.82c31.65,31.58,27.74,47.46,0,75.14l-424.73,423.82c-6.96,6.94-15.4,11.54-24.34,13.82,4.36,1.11,8.84,1.68,13.32,1.68,13.65,0,27.3-5.17,37.65-15.5l424.73-423.82c20.71-20.66,20.71-54.48,0-75.14Z"/>
    <g>
      <path class="cls-5" d="M467.88,812.77c-31.28-39.24-52.71-93.35-57.42-143.65-8.34-89.01,23.53-125.52,68.42-193.42,51.43-77.81,68.47-117.2,58.33-213.91-2.84-27.08-9.23-53.83-11.2-80.99,57.12,63.19,91.12,154.32,65.16,238.84-19.4,63.15-56.04,97.23-93.1,147.4-52.67,71.3-44.56,162.97-30.18,245.73Z"/>
      <path class="cls-2" d="M536.4,192.92c40.87,61.2,61.28,138.51,39.51,211.05-19.4,64.62-56.04,99.49-93.1,150.82-48.49,67.17-45.47,152-33.46,231.13,5.69,9.5,11.89,18.51,18.53,26.85-14.38-82.77-22.49-174.43,30.18-245.73,37.06-50.16,73.7-84.25,93.1-147.4,24.34-79.25-4.03-164.33-54.76-226.72Z"/>
      <path class="cls-3" d="M560.07,810.09c-36.27-45.95-47.71-114.91-28.07-170.37,17.13-48.36,63.45-81.82,88.43-126.68,27.71-49.76,21.2-93.14,25.16-147.22.15-1.99-1.04-3.87,1.99-3.31,44.24,49.78,63.14,120.98,35.65,183.94-20.83,47.72-51.32,65.71-82.42,101.96-37.42,43.63-40.45,106.68-40.75,161.68Z"/>
      <path class="cls-6" d="M652.25,367.96c29.33,48.36,38.63,108.54,15.73,162.8-20.83,49.36-51.32,67.98-82.42,105.48-33.89,40.86-39.57,98.21-40.56,150.93,4.41,8.1,9.44,15.79,15.07,22.93.3-55,3.32-118.06,40.75-161.68,31.1-36.25,61.59-54.25,82.42-101.96,26.5-60.69,9.88-129.05-30.99-178.49Z"/>
      <path class="cls-7" d="M367.68,653.76l-7.99-7.36c-33.73-44.41-49.6-101.69-36.77-156.97,13.24-57.05,66.69-98.51,84.17-156.33,13.31-44.04,4.4-88.73,4.01-133.6,32.26,29.16,55.58,70.7,60.78,114.25,5.86,49.09-13.73,92.94-42.18,131.47-14.23,19.28-34.05,36.76-45.34,57.54-24.37,44.87-20.93,101.75-16.68,150.99Z"/>
      <path class="cls-3" d="M471.88,313.75c-4.3-36.03-21.02-70.68-44.93-98.09,15.67,23.99,26.36,51.56,29.67,79.97,5.86,50.23-13.73,95.1-42.18,134.52-14.23,19.72-34.05,37.61-45.34,58.88-23.03,43.39-21.23,97.75-17.37,146.13,2.53,3.82,5.17,7.58,7.95,11.23l7.99,7.36c-4.25-49.24-7.68-106.13,16.68-150.99,11.29-20.79,31.1-38.27,45.34-57.54,28.45-38.53,48.04-82.38,42.18-131.47Z"/>
    </g>
  </g>
</svg>