<?xml version="1.0" encoding="UTF-8"?>
<svg id="Ebene_2" data-name="Ebene 2" xmlns="http://www.w3.org/2000/svg" viewBox="0 0 1004.95 1004.95">
  <defs>
    <style>
      .cls-1 {
        fill: #f7a834;
      }

      .cls-2 {
        fill: #f39200;
      }

      .cls-3 {
        fill: #353738;
      }

      .cls-4 {
        fill: #f9cc12;
      }

      .cls-5 {
        fill: #e8651c;
      }

      .cls-6 {
        fill: #f9b233;
      }

      .cls-7 {
        fill: #242626;
      }
    </style>
  </defs>
  <g id="logo">
    <path class="cls-3" d="M502.47,50c1.16,0,2.84.29,4.23,1.69l446.56,446.56c2.25,2.25,2.25,6.21,0,8.47l-446.56,446.56c-1.39,1.39-3.07,1.69-4.23,1.69s-2.84-.29-4.23-1.69L51.69,506.71c-2.25-2.25-2.25-6.21,0-8.47L498.24,51.69c1.39-1.39,3.07-1.69,4.23-1.69M502.47,0c-14.35,0-28.7,5.44-39.59,16.33L16.33,462.89c-21.77,21.77-21.77,57.4,0,79.18l446.56,446.56c10.89,10.89,25.24,16.33,39.59,16.33s28.7-5.44,39.59-16.33l446.56-446.56c21.77-21.77,21.77-57.4,0-79.18L542.06,16.33c-10.89-10.89-25.24-16.33-39.59-16.33h0Z"/>
    <path class="cls-7" d="M988.62,462.89L542.06,16.33c-10.89-10.89-25.24-16.33-39.59-16.33-4.71,0-9.41.6-14,1.77,9.39,2.4,18.27,7.25,25.59,14.56l446.56,446.56c33.28,33.28,29.17,50.01,0,79.18l-446.56,446.56c-7.31,7.31-16.2,12.16-25.59,14.56,4.59,1.17,9.29,1.77,14,1.77,14.35,0,28.7-5.44,39.59-16.33l446.56-446.56c21.77-21.77,21.77-57.4,0-79.18Z"/>
    <path class="cls-7" d="M498.24,51.69c1.39-1.39,3.07-1.69,4.23-1.69.12,0,.25,0,.38.01l-10.87-10.87c-1.39-1.39-3.07-1.69-4.23-1.69s-2.84.29-4.23,1.69L24.42,498.24c-2.25,2.25-2.25,6.21,0,8.47l459.1,459.1c1.39,1.39,3.07,1.69,4.23,1.69s2.84-.29,4.23-1.69l10.87-10.87c-.13,0-.26.01-.38.01-1.16,0-2.84-.29-4.23-1.69L51.69,506.71c-2.25-2.25-2.25-6.21,0-8.47L498.24,51.69Z"/>
    <g>
      <path class="cls-4" d="M472.05,834.7c-32.89-41.26-55.42-98.15-60.37-151.03-8.77-93.58,24.74-131.97,71.94-203.36,54.07-81.8,71.98-123.22,61.32-224.9-2.99-28.47-9.71-56.6-11.77-85.16,60.06,66.43,95.8,162.25,68.51,251.11-20.39,66.4-58.92,102.23-97.88,154.97-55.38,74.96-46.85,171.34-31.74,258.36Z"/>
      <path class="cls-1" d="M544.1,183c42.97,64.34,64.43,145.62,41.54,221.9-20.39,67.94-58.92,104.6-97.88,158.57-50.98,70.62-47.8,159.81-35.18,243,5.98,9.99,12.5,19.46,19.48,28.23-15.12-87.02-23.64-183.4,31.74-258.36,38.96-52.74,77.49-88.57,97.88-154.97,25.59-83.33-4.24-172.77-57.58-238.37Z"/>
      <path class="cls-2" d="M568.98,831.89c-38.14-48.32-50.16-120.82-29.51-179.13,18.01-50.84,66.71-86.02,92.98-133.19,29.14-52.31,22.29-97.93,26.45-154.79.15-2.09-1.09-4.06,2.09-3.48,46.51,52.34,66.38,127.2,37.49,193.39-21.9,50.17-53.96,69.09-86.65,107.2-39.35,45.87-42.53,112.16-42.84,169.99Z"/>
      <path class="cls-5" d="M665.9,367.03c30.84,50.84,40.62,114.12,16.54,171.16-21.9,51.9-53.96,71.47-86.65,110.9-35.63,42.96-41.6,103.26-42.65,158.68,4.64,8.52,9.92,16.6,15.84,24.1.32-57.83,3.49-124.13,42.84-169.99,32.7-38.11,64.75-57.03,86.65-107.2,27.86-63.81,10.39-135.68-32.58-187.66Z"/>
      <path class="cls-6" d="M366.7,667.52l-8.4-7.74c-35.46-46.7-52.15-106.92-38.66-165.04,13.92-59.99,70.12-103.57,88.5-164.36,14-46.3,4.63-93.29,4.21-140.46,33.91,30.66,58.44,74.34,63.9,120.12,6.16,51.61-14.44,97.72-44.35,138.23-14.97,20.27-35.8,38.65-47.67,60.5-25.62,47.17-22.01,106.98-17.54,158.75Z"/>
      <path class="cls-2" d="M476.26,310.04c-4.52-37.88-22.1-74.31-47.24-103.13,16.47,25.22,27.71,54.21,31.2,84.08,6.16,52.81-14.44,99.99-44.35,141.44-14.97,20.74-35.8,39.54-47.67,61.91-24.21,45.62-22.32,102.78-18.26,153.64,2.66,4.02,5.44,7.97,8.36,11.81l8.4,7.74c-4.47-51.77-8.08-111.58,17.54-158.75,11.87-21.86,32.7-40.23,47.67-60.5,29.91-40.51,50.51-86.62,44.35-138.23Z"/>
    </g>
  </g>
</svg>