<?xml version="1.0" encoding="UTF-8"?>
<svg id="Ebene_2" data-name="Ebene 2" xmlns="http://www.w3.org/2000/svg" viewBox="0 0 1000 1000">
  <defs>
    <style>
      .cls-1 {
        fill: #1d1b1b;
      }

      .cls-2 {
        fill: #fff;
      }

      .cls-3 {
        fill: #f7a834;
      }

      .cls-4 {
        fill: #f39200;
      }

      .cls-5 {
        fill: #f9cc12;
      }

      .cls-6 {
        fill: #e8651c;
      }

      .cls-7 {
        fill: #3c3c3b;
      }

      .cls-8 {
        fill: #f9b233;
      }
    </style>
  </defs>
  <g id="logo">
    <g id="rahmen_unraid">
      <g id="rahmen_hell">
        <path class="cls-2" d="M500,127.24l372.76,372.76-372.76,372.76L127.24,500,500,127.24M500,23.22c-14.35,0-28.7,5.44-39.59,16.33L39.55,460.41c-21.77,21.77-21.77,57.4,0,79.18l420.86,420.86c10.89,10.89,25.24,16.33,39.59,16.33s28.7-5.44,39.59-16.33l420.86-420.86c21.77-21.77,21.77-57.4,0-79.18L539.59,39.55c-10.89-10.89-25.24-16.33-39.59-16.33h0Z"/>
      </g>
      <path class="cls-1" d="M500,138.78l361.22,361.22-361.22,361.22L138.79,500,500,138.78M500,110.5L110.5,500l389.5,389.5,389.5-389.5L500,110.5h0Z"/>
      <path class="cls-1" d="M500,20c9.66,0,18.69,3.72,25.45,10.47l444.08,444.08c6.75,6.75,10.47,15.79,10.47,25.45s-3.72,18.69-10.47,25.45l-444.08,444.08c-6.75,6.75-15.79,10.47-25.45,10.47s-18.69-3.72-25.45-10.47L30.47,525.45c-6.75-6.75-10.47-15.79-10.47-25.45s3.72-18.69,10.47-25.45L474.55,30.47c6.75-6.75,15.79-10.47,25.45-10.47M500,0c-14.35,0-28.7,5.44-39.59,16.33L16.33,460.41c-21.77,21.77-21.77,57.4,0,79.18l444.08,444.08c10.89,10.89,25.24,16.33,39.59,16.33s28.7-5.44,39.59-16.33l444.08-444.08c21.77-21.77,21.77-57.4,0-79.18L539.59,16.33c-10.89-10.89-25.24-16.33-39.59-16.33h0Z"/>
      <path class="cls-7" d="M498.13,113.26c1.2-1.2,2.63-1.45,3.63-1.45.1,0,.22,0,.33.01l-9.33-9.33c-1.2-1.2-2.64-1.45-3.63-1.45s-2.44.25-3.63,1.45L91.54,496.45c-1.93,1.93-1.93,5.33,0,7.26l393.95,393.95c1.2,1.2,2.63,1.45,3.63,1.45s2.44-.25,3.63-1.45l9.33-9.33c-.11,0-.22.01-.33.01-1,0-2.44-.25-3.63-1.45L110.94,500,498.13,113.26Z"/>
      <path class="cls-7" d="M958.94,462.4L534.21,38.58c-10.35-10.33-17.47-17.54-29.14-18.45s-17.75,1.67-22.58,4.33c8.93,2.28,18.13,7.18,25.09,14.12l424.73,423.82c37.98,35.56,36.2,41.78,0,75.14l-424.73,423.82c-6.96,6.94-16.24,11.99-25.18,14.27,4.21,1.65,8.08,5.08,21.42,4.25s20.04-8.18,30.39-18.52l424.73-423.82c32.91-29.36,23.35-54.03,0-75.14Z"/>
    </g>
    <g>
      <path class="cls-5" d="M473.77,797.3c-29.13-36.55-49.09-86.94-53.48-133.79-7.77-82.9,21.92-116.9,63.72-180.15,47.9-72.47,63.77-109.15,54.32-199.22-2.64-25.22-8.6-50.14-10.43-75.43,53.2,58.85,84.86,143.73,60.69,222.44-18.07,58.82-52.2,90.56-86.71,137.28-49.06,66.41-41.5,151.78-28.11,228.87Z"/>
      <path class="cls-3" d="M537.59,219.99c38.06,57,57.08,129,36.8,196.57-18.07,60.18-52.2,92.66-86.71,140.47-45.16,62.56-42.35,141.57-31.16,215.26,5.3,8.85,11.07,17.24,17.26,25.01-13.39-77.09-20.94-162.46,28.11-228.87,34.51-46.72,68.64-78.46,86.71-137.28,22.67-73.81-3.76-153.05-51-211.15Z"/>
      <path class="cls-4" d="M559.63,794.81c-33.78-42.8-44.44-107.02-26.14-158.68,15.95-45.04,59.09-76.2,82.36-117.99,25.81-46.34,19.75-86.75,23.43-137.12.14-1.85-.97-3.6,1.85-3.08,41.2,46.36,58.8,112.68,33.21,171.31-19.4,44.44-47.8,61.2-76.76,94.97-34.86,40.63-37.67,99.36-37.95,150.59Z"/>
      <path class="cls-6" d="M645.48,383.02c27.32,45.04,35.98,101.09,14.65,151.63-19.4,45.98-47.8,63.31-76.76,98.24-31.56,38.06-36.85,91.47-37.78,140.57,4.11,7.55,8.79,14.71,14.04,21.35.28-51.23,3.1-109.96,37.95-150.59,28.97-33.76,57.36-50.52,76.76-94.97,24.68-56.53,9.2-120.19-28.86-166.23Z"/>
      <path class="cls-8" d="M380.45,649.2l-7.44-6.86c-31.42-41.37-46.19-94.71-34.24-146.2,12.33-53.14,62.11-91.74,78.4-145.6,12.4-41.02,4.1-82.64,3.73-124.43,30.04,27.16,51.76,65.85,56.61,106.41,5.46,45.72-12.79,86.56-39.29,122.45-13.26,17.95-31.71,34.23-42.22,53.59-22.69,41.79-19.5,94.77-15.54,140.63Z"/>
      <path class="cls-4" d="M477.5,332.53c-4.01-33.56-19.58-65.83-41.84-91.36,14.59,22.34,24.55,48.02,27.64,74.48,5.46,46.78-12.79,88.57-39.29,125.29-13.26,18.37-31.71,35.03-42.22,54.84-21.45,40.41-19.77,91.04-16.18,136.1,2.36,3.56,4.82,7.06,7.41,10.46l7.44,6.86c-3.96-45.86-7.16-98.84,15.54-140.63,10.51-19.36,28.97-35.64,42.22-53.59,26.5-35.88,44.74-76.73,39.29-122.45Z"/>
    </g>
  </g>
</svg>
