<?xml version="1.0" encoding="UTF-8"?>
<svg id="Ebene_2" data-name="Ebene 2" xmlns="http://www.w3.org/2000/svg" viewBox="0 0 955.7 953.78">
  <defs>
    <style>
      .cls-1 {
        fill: #fff;
      }

      .cls-2 {
        fill: #f7a834;
      }

      .cls-3 {
        fill: #f39200;
      }

      .cls-4 {
        fill: #f9cc12;
      }

      .cls-5 {
        fill: #e8651c;
      }

      .cls-6 {
        fill: #3c3c3b;
      }

      .cls-7 {
        fill: #f9b233;
      }
    </style>
  </defs>
  <g id="logo">
    <g id="rahmen_hell">
      <path class="cls-1" d="M476.78,104.16l372.76,372.76-372.76,372.76L104.02,476.92,476.78,104.16M476.78.14c-14.35,0-28.7,5.44-39.59,16.33L16.33,437.33c-21.77,21.77-21.77,57.4,0,79.18l420.86,420.86c10.89,10.89,25.24,16.33,39.59,16.33s28.7-5.44,39.59-16.33l420.86-420.86c21.77-21.77,21.77-57.4,0-79.18L516.37,16.47C505.48,5.58,491.13.14,476.78.14h0Z"/>
    </g>
    <g id="rahmen_schattierung">
      <path class="cls-6" d="M474.75,107.08c1.14-1.14,2.52-1.38,3.47-1.38.1,0,.21,0,.31.01l-8.92-8.92c-1.14-1.14-2.52-1.38-3.47-1.38s-2.33.24-3.47,1.38L85.92,473.52c-1.85,1.85-1.85,5.1,0,6.95l376.74,376.74c1.14,1.14,2.52,1.38,3.47,1.38s2.33-.24,3.47-1.38l8.92-8.92c-.11,0-.21.01-.31.01-.95,0-2.33-.24-3.47-1.38L104.47,476.92,474.75,107.08Z"/>
      <path class="cls-6" d="M940.16,439.32L515.43,15.5c-10.35-10.33-24-15.5-37.65-15.5-4.48,0-8.95.57-13.32,1.68,8.93,2.28,17.38,6.88,24.34,13.82l424.73,423.82c31.65,31.58,27.74,47.46,0,75.14l-424.73,423.82c-6.96,6.94-15.4,11.54-24.34,13.82,4.36,1.11,8.84,1.68,13.32,1.68,13.65,0,27.3-5.17,37.65-15.5l424.73-423.82c20.71-20.66,20.71-54.48,0-75.14Z"/>
    </g>
    <g>
      <path class="cls-4" d="M450.55,774.21c-29.13-36.55-49.09-86.94-53.48-133.79-7.77-82.9,21.92-116.9,63.72-180.15,47.9-72.47,63.77-109.15,54.32-199.22-2.64-25.22-8.6-50.14-10.43-75.43,53.2,58.85,84.86,143.73,60.69,222.44-18.07,58.82-52.2,90.56-86.71,137.28-49.06,66.41-41.5,151.78-28.11,228.87Z"/>
      <path class="cls-2" d="M514.37,196.91c38.06,57,57.08,129,36.8,196.57-18.07,60.18-52.2,92.66-86.71,140.47-45.16,62.56-42.35,141.57-31.16,215.26,5.3,8.85,11.07,17.24,17.26,25.01-13.39-77.09-20.94-162.46,28.11-228.87,34.51-46.72,68.64-78.46,86.71-137.28,22.67-73.81-3.76-153.05-51-211.15Z"/>
      <path class="cls-3" d="M536.41,771.72c-33.78-42.8-44.44-107.02-26.14-158.68,15.95-45.04,59.09-76.2,82.36-117.99,25.81-46.34,19.75-86.75,23.43-137.12.14-1.85-.97-3.6,1.85-3.08,41.2,46.36,58.8,112.68,33.21,171.31-19.4,44.44-47.8,61.2-76.76,94.97-34.86,40.63-37.67,99.36-37.95,150.59Z"/>
      <path class="cls-5" d="M622.26,359.94c27.32,45.04,35.98,101.09,14.65,151.63-19.4,45.98-47.8,63.31-76.76,98.24-31.56,38.06-36.85,91.47-37.78,140.57,4.11,7.55,8.79,14.71,14.04,21.35.28-51.23,3.1-109.96,37.95-150.59,28.97-33.76,57.36-50.52,76.76-94.97,24.68-56.53,9.2-120.19-28.86-166.23Z"/>
      <path class="cls-7" d="M357.23,626.12l-7.44-6.86c-31.42-41.37-46.19-94.71-34.24-146.2,12.33-53.14,62.11-91.74,78.4-145.6,12.4-41.02,4.1-82.64,3.73-124.43,30.04,27.16,51.76,65.85,56.61,106.41,5.46,45.72-12.79,86.56-39.29,122.45-13.26,17.95-31.71,34.23-42.22,53.59-22.69,41.79-19.5,94.77-15.54,140.63Z"/>
      <path class="cls-3" d="M454.28,309.45c-4.01-33.56-19.58-65.83-41.84-91.36,14.59,22.34,24.55,48.02,27.64,74.48,5.46,46.78-12.79,88.57-39.29,125.29-13.26,18.37-31.71,35.03-42.22,54.84-21.45,40.41-19.77,91.04-16.18,136.1,2.36,3.56,4.82,7.06,7.41,10.46l7.44,6.86c-3.96-45.86-7.16-98.84,15.54-140.63,10.51-19.36,28.97-35.64,42.22-53.59,26.5-35.88,44.74-76.73,39.29-122.45Z"/>
    </g>
  </g>
</svg>
